<?xml version="1.0" standalone="no"?>
<svg viewBox="0 0 200 200" xmlns="http://www.w3.org/2000/svg">
  <path fill="#F2F4F8" d="M43.5,-74.2C57.5,-67.2,71,-58,78.4,-45.2C85.9,-32.5,87.4,-16.2,86.5,-0.5C85.6,15.2,82.3,30.4,74.4,42.4C66.5,54.4,54.1,63.3,40.9,72.2C27.8,81,13.9,89.8,0.7,88.6C-12.6,87.5,-25.1,76.3,-37.6,67.1C-50,57.9,-62.4,50.5,-71.8,39.7C-81.2,28.8,-87.7,14.4,-87.6,0.1C-87.4,-14.2,-80.7,-28.5,-71.3,-39.4C-61.9,-50.3,-49.8,-57.9,-37.5,-65.9C-25.2,-73.9,-12.6,-82.4,1.1,-84.2C14.7,-86,29.4,-81.2,43.5,-74.2Z" transform="translate(100 100)" />
</svg>
